<svg width="24" height="25" viewBox="0 0 24 25" fill="none" xmlns="http://www.w3.org/2000/svg">
<path d="M24 12.2612C24 5.63192 18.6248 0.261169 12 0.261169C5.37075 0.261169 0 5.63192 0 12.2612C0 18.2492 4.38675 23.2142 10.125 24.1134V15.7307H7.07775V12.2619H10.125V9.61667C10.125 6.60992 11.9138 4.94942 14.6558 4.94942C15.969 4.94942 17.3438 5.18342 17.3438 5.18342V8.13617H15.828C14.34 8.13617 13.875 9.06242 13.875 10.0112V12.2612H17.2028L16.668 15.7299H13.875V24.1127C19.6087 23.2134 24 18.2484 24 12.2604V12.2612Z" fill="white"/>
</svg>
