<svg width="20" height="21" viewBox="0 0 20 21" fill="none" xmlns="http://www.w3.org/2000/svg">
<path fill-rule="evenodd" clip-rule="evenodd" d="M7.429 7.23014H11.143V9.08014C11.678 8.01614 13.05 7.06014 15.111 7.06014C19.062 7.06014 20 9.17814 20 13.0641V20.2611H16V13.9491C16 11.7361 15.465 10.4881 14.103 10.4881C12.214 10.4881 11.429 11.8331 11.429 13.9481V20.2611H7.429V7.23014ZM0.57 20.0911H4.57V7.06014H0.57V20.0911ZM5.143 2.81114C5.14315 3.14641 5.07666 3.47837 4.94739 3.78773C4.81812 4.09708 4.62865 4.37765 4.39 4.61314C3.9064 5.09376 3.25181 5.36279 2.57 5.36114C1.88939 5.36068 1.23631 5.09234 0.752 4.61414C0.514211 4.37785 0.325386 4.09696 0.196344 3.78757C0.0673015 3.47818 0.000579132 3.14636 0 2.81114C0 2.13414 0.27 1.48614 0.753 1.00814C1.23689 0.529297 1.89024 0.26084 2.571 0.261139C3.253 0.261139 3.907 0.530139 4.39 1.00814C4.872 1.48614 5.143 2.13414 5.143 2.81114Z" fill="white"/>
</svg>
