<svg width="76" height="76" viewBox="0 0 76 76" fill="none" xmlns="http://www.w3.org/2000/svg">
<circle cx="38" cy="38" r="38" fill="#FFFC00"/>
<path d="M28.686 26.3809L28.6859 26.3811C28.2565 27.3431 28.1106 28.7376 28.1047 30.2808C28.1002 31.4729 28.1778 32.7015 28.2488 33.824C28.269 34.1444 28.2887 34.4561 28.3058 34.7558L28.3237 35.0694L28.0489 35.2216C27.3384 35.6153 26.5689 35.4418 26.003 35.2586C25.8349 35.2041 25.6459 35.1346 25.4785 35.0729C25.3769 35.0355 25.2832 35.001 25.2069 34.9746C24.9629 34.8901 24.8116 34.8552 24.7175 34.8552C24.4303 34.8552 24.0978 34.9524 23.8273 35.1259C23.5549 35.3007 23.4 35.5151 23.3609 35.7191C23.3334 35.8634 23.3426 36.0541 23.5199 36.2886C23.7116 36.542 24.1196 36.871 24.955 37.2008L24.9552 37.2009C25.0789 37.2499 25.2398 37.3012 25.4418 37.3656C25.4849 37.3793 25.5298 37.3937 25.5767 37.4087C25.832 37.4907 26.1269 37.5884 26.4158 37.7085C26.9577 37.9338 27.6347 38.2976 27.9074 38.9398C28.0294 39.227 28.0188 39.5672 27.965 39.878C27.9086 40.2041 27.7916 40.5711 27.6273 40.9571C27.2981 41.7305 26.7585 42.629 26.044 43.5066C24.6202 45.2554 22.4426 46.9915 19.7416 47.436L19.6604 46.9427M28.686 26.3809L56.4993 47.7351C56.4889 47.9179 56.3784 48.1255 56.0771 48.3564C55.7759 48.5871 55.3424 48.7936 54.8292 48.9726C53.8064 49.3294 52.5977 49.5337 51.8378 49.6517L51.6348 49.6832L51.5126 49.8482C51.4159 49.9788 51.3593 50.1519 51.3238 50.2708C51.2822 50.4101 51.2427 50.5749 51.2046 50.7416C51.1889 50.8104 51.1732 50.8801 51.1574 50.9502C51.094 51.2324 51.0292 51.5208 50.952 51.7823L50.9514 51.7843C50.9139 51.9132 50.8678 51.9701 50.8369 51.9977C50.8057 52.0255 50.7576 52.0526 50.6694 52.0689C50.4638 52.1068 50.1701 52.0685 49.7481 51.9858L49.7477 51.9857C48.519 51.7459 47.3982 51.6752 46.0932 51.8913L46.0928 51.8914C45.463 51.9962 44.8583 52.301 44.278 52.6555C43.9411 52.8613 43.5777 53.1071 43.2107 53.3552C42.9618 53.5235 42.7114 53.6928 42.4665 53.8516C41.2041 54.6698 39.8235 55.3917 38.1157 55.3917C36.2606 55.3917 34.8399 54.6673 33.5731 53.8555C33.3182 53.6921 33.055 53.5151 32.7937 53.3394C32.4351 53.0982 32.08 52.8594 31.754 52.6611C31.1687 52.3049 30.5579 51.9995 29.9092 51.8914L29.9086 51.8913C28.7176 51.6942 27.7755 51.7543 27.0325 51.8638C26.7408 51.9068 26.4765 51.958 26.2511 52.0017C26.1941 52.0128 26.1396 52.0233 26.0878 52.0332C25.8175 52.0844 25.6336 52.1126 25.4918 52.1126C25.3034 52.1126 25.2182 52.0588 25.1746 52.0196C25.1212 51.9716 25.0786 51.8972 25.0498 51.7996C24.9745 51.5441 24.9107 51.258 24.8476 50.9753C24.8314 50.9027 24.8153 50.8303 24.799 50.7586C24.7606 50.59 24.7207 50.4228 24.6786 50.2812C24.6425 50.16 24.5852 49.9851 24.4879 49.8534L24.3657 49.6879L24.1623 49.6564C23.3957 49.5377 22.1874 49.3326 21.1668 48.9754C20.6548 48.7961 20.2227 48.5895 19.9225 48.3587C19.6224 48.128 19.5116 47.9202 19.5009 47.7362C19.4971 47.6654 19.5195 47.5956 19.5639 47.5402L19.1746 47.2282L19.5639 47.5402C19.6084 47.4847 19.6718 47.4476 19.7419 47.436L19.6604 46.9427M28.686 26.3809C30.4033 22.5304 34.1702 20.6083 37.9795 20.6083C41.8151 20.6083 45.6115 22.5596 47.3143 26.3747C47.7431 27.3361 47.8888 28.7261 47.8949 30.2672C47.8996 31.4549 47.8226 32.6805 47.752 33.8062C47.7315 34.1312 47.7117 34.4479 47.6944 34.7529L47.6767 35.067L47.9522 35.2189C48.6415 35.599 49.3732 35.4119 49.9086 35.2283C50.0486 35.1803 50.186 35.1284 50.3131 35.0802L50.3196 35.0778C50.4469 35.0296 50.5631 34.9856 50.6751 34.9471C50.9104 34.8661 51.076 34.8283 51.1972 34.8283C51.5091 34.8283 51.8968 34.9375 52.1983 35.1372C52.4983 35.3359 52.645 35.573 52.6495 35.8165L52.6496 35.8169C52.6533 36.0081 52.5766 36.2188 52.3302 36.4571C52.0752 36.7037 51.6585 36.9574 51.0454 37.1992L51.0452 37.1993M28.686 26.3809L51.0452 37.1993M19.6604 46.9427C19.4686 46.9744 19.2953 47.0758 19.1737 47.2275C19.0522 47.3791 18.9909 47.5703 19.0017 47.7644L27.7504 33.8657C27.7705 34.1833 27.7899 34.4907 27.8066 34.7843C27.1401 35.1535 26.3505 34.8619 25.6746 34.6122C25.3102 34.4776 24.9788 34.3552 24.7175 34.3552C23.9417 34.3552 23.0155 34.865 22.8698 35.625C22.7653 36.1728 23.0107 36.9708 24.7714 37.6659C24.9124 37.7217 25.0938 37.7795 25.296 37.8439C26.0699 38.0906 27.1497 38.4348 27.4472 39.1353C27.9745 40.3766 24.7397 46.1067 19.6604 46.9427ZM51.0452 37.1993C50.9181 37.2495 50.7546 37.3017 50.5507 37.3669C50.5082 37.3805 50.4639 37.3946 50.4178 37.4094C50.1618 37.4917 49.8672 37.5894 49.5789 37.7094C49.038 37.9344 48.3647 38.2971 48.0928 38.9382L51.0452 37.1993ZM56.4364 47.5386C56.4808 47.594 56.5032 47.6638 56.4993 47.7347L56.2583 47.4344C56.2584 47.4344 56.2585 47.4344 56.2585 47.4344C56.3286 47.4461 56.3919 47.4832 56.4364 47.5386Z" fill="white" stroke="black"/>
</svg>
