<svg width="24" height="19" viewBox="0 0 24 19" fill="none" xmlns="http://www.w3.org/2000/svg">
<path d="M23.6425 2.19805C22.8075 2.56805 21.9105 2.81805 20.9675 2.93105C21.9405 2.34884 22.6685 1.43251 23.0155 0.353048C22.1014 0.896038 21.1009 1.27824 20.0575 1.48305C19.3559 0.733913 18.4266 0.237374 17.4139 0.0705221C16.4011 -0.0963301 15.3616 0.0758395 14.4568 0.560301C13.5519 1.04476 12.8323 1.81441 12.4097 2.74975C11.9871 3.68509 11.8851 4.7338 12.1195 5.73305C10.2672 5.64004 8.45515 5.1586 6.80095 4.31995C5.14674 3.48131 3.68736 2.30421 2.51752 0.865048C2.11752 1.55505 1.88752 2.35505 1.88752 3.20705C1.88708 3.97404 2.07596 4.72929 2.4374 5.40578C2.79885 6.08227 3.32169 6.65909 3.95952 7.08505C3.2198 7.06151 2.4964 6.86163 1.84952 6.50205V6.56205C1.84945 7.63779 2.22156 8.68043 2.90271 9.51304C3.58386 10.3457 4.5321 10.917 5.58652 11.13C4.90031 11.3158 4.18086 11.3431 3.48252 11.21C3.78002 12.1357 4.35952 12.9451 5.13989 13.525C5.92026 14.1049 6.86244 14.4262 7.83452 14.444C6.18436 15.7395 4.14641 16.4421 2.04852 16.439C1.6769 16.4391 1.3056 16.4174 0.936523 16.374C3.066 17.7432 5.54486 18.4699 8.07652 18.467C16.6465 18.467 21.3315 11.369 21.3315 5.21305C21.3315 5.01305 21.3265 4.81105 21.3175 4.61105C22.2288 3.95202 23.0154 3.13594 23.6405 2.20105L23.6425 2.19805Z" fill="white"/>
</svg>
