<svg width="20" height="17" viewBox="0 0 20 17" fill="none" xmlns="http://www.w3.org/2000/svg">
<path d="M19.543 2.75902C20 4.54102 20 8.26102 20 8.26102C20 8.26102 20 11.981 19.543 13.763C19.289 14.748 18.546 15.523 17.605 15.785C15.896 16.261 10 16.261 10 16.261C10 16.261 4.107 16.261 2.395 15.785C1.45 15.519 0.708 14.745 0.457 13.763C2.98023e-08 11.981 0 8.26102 0 8.26102C0 8.26102 2.98023e-08 4.54102 0.457 2.75902C0.711 1.77402 1.454 0.999017 2.395 0.737017C4.107 0.261017 10 0.261017 10 0.261017C10 0.261017 15.896 0.261017 17.605 0.737017C18.55 1.00302 19.292 1.77702 19.543 2.75902ZM8 11.761L14 8.26102L8 4.76102V11.761Z" fill="white"/>
</svg>
